<svg width="512" height="512" viewBox="0 0 512 512" fill="none" xmlns="http://www.w3.org/2000/svg">
<g>
	<g>
		<g>
			<path d="M256,0C114.84,0,0,114.842,0,256c0,141.16,114.84,256,256,256s256-114.84,256-256C512,114.842,397.16,0,256,0z
				 M256,474.537c-120.501,0-218.537-98.036-218.537-218.537S135.499,37.463,256,37.463S474.537,135.499,474.537,256
				S376.501,474.537,256,474.537z" fill="white"/>
			<path d="M432.106,213.799c-2.41-10.06-12.519-16.265-22.58-13.851c-10.061,2.41-16.262,12.52-13.852,22.58
				c2.611,10.899,3.936,22.161,3.936,33.472c0,10.345,8.387,18.732,18.732,18.732c10.345,0,18.732-8.387,18.732-18.732
				C437.073,241.751,435.402,227.553,432.106,213.799z" fill="white"/>
			<path d="M399.763,146.015C365.127,100.838,312.727,74.927,256,74.927c-10.345,0-18.732,8.387-18.732,18.732
				c0,10.345,8.387,18.732,18.732,18.732c44.98,0,86.543,20.564,114.031,56.419c6.295,8.211,18.052,9.763,26.263,3.469
				C404.504,165.984,406.057,154.226,399.763,146.015z" fill="white"/>
			<path d="M256,188.696c-37.111,0-67.304,30.193-67.304,67.304s30.193,67.304,67.304,67.304s67.304-30.193,67.304-67.304
				S293.111,188.696,256,188.696z M256,285.841c-16.454,0-29.841-13.387-29.841-29.841s13.387-29.841,29.841-29.841
				s29.841,13.387,29.841,29.841S272.454,285.841,256,285.841z" fill="white"/>
		</g>
	</g>
</g>
</svg>